<svg width="1920" height="502" viewBox="0 0 1920 502" fill="none" xmlns="http://www.w3.org/2000/svg">
<rect width="1920" height="413" fill="#DC0000"/>
<path d="M166.224 174.6H135.024L129.072 189H113.136L143.088 121.8H158.448L188.496 189H172.176L166.224 174.6ZM161.328 162.792L150.672 137.064L140.016 162.792H161.328ZM219.948 162.6L210.924 172.008V189H195.468V121.8H210.924V153.192L240.684 121.8H257.964L230.124 151.752L259.596 189H241.452L219.948 162.6ZM295.449 190.152C285.849 190.152 278.361 187.496 272.985 182.184C267.673 176.872 265.017 169.288 265.017 159.432V121.8H280.569V158.856C280.569 170.888 285.561 176.904 295.545 176.904C300.409 176.904 304.121 175.464 306.681 172.584C309.241 169.64 310.521 165.064 310.521 158.856V121.8H325.881V159.432C325.881 169.288 323.193 176.872 317.817 182.184C312.505 187.496 305.049 190.152 295.449 190.152ZM384.065 189L371.105 170.28H370.337H356.801V189H341.249V121.8H370.337C376.289 121.8 381.441 122.792 385.793 124.776C390.209 126.76 393.601 129.576 395.969 133.224C398.337 136.872 399.521 141.192 399.521 146.184C399.521 151.176 398.305 155.496 395.873 159.144C393.505 162.728 390.113 165.48 385.697 167.4L400.769 189H384.065ZM383.777 146.184C383.777 142.408 382.561 139.528 380.129 137.544C377.697 135.496 374.145 134.472 369.473 134.472H356.801V157.896H369.473C374.145 157.896 377.697 156.872 380.129 154.824C382.561 152.776 383.777 149.896 383.777 146.184ZM456.099 174.6H424.899L418.947 189H403.011L432.963 121.8H448.323L478.371 189H462.051L456.099 174.6ZM451.203 162.792L440.547 137.064L429.891 162.792H451.203Z" fill="black"/>
<path d="M143.088 254L142.718 254.153L142.821 254.4H143.088V254ZM151.248 254V254.4H151.865L151.613 253.837L151.248 254ZM136.224 220.4L136.589 220.237L136.483 220H136.224V220.4ZM128.544 220.4V220H128.284L128.179 220.237L128.544 220.4ZM113.568 254L113.203 253.837L112.952 254.4H113.568V254ZM121.536 254V254.4H121.803L121.906 254.153L121.536 254ZM124.512 246.8V246.4H124.245L124.142 246.647L124.512 246.8ZM140.112 246.8L140.482 246.647L140.379 246.4H140.112V246.8ZM127.008 240.896L126.638 240.743L126.409 241.296H127.008V240.896ZM132.336 228.032L132.706 227.879L132.336 226.987L131.966 227.879L132.336 228.032ZM137.664 240.896V241.296H138.263L138.034 240.743L137.664 240.896ZM143.088 254.4H151.248V253.6H143.088V254.4ZM151.613 253.837L136.589 220.237L135.859 220.563L150.883 254.163L151.613 253.837ZM136.224 220H128.544V220.8H136.224V220ZM128.179 220.237L113.203 253.837L113.933 254.163L128.909 220.563L128.179 220.237ZM113.568 254.4H121.536V253.6H113.568V254.4ZM121.906 254.153L124.882 246.953L124.142 246.647L121.166 253.847L121.906 254.153ZM124.512 247.2H140.112V246.4H124.512V247.2ZM139.742 246.953L142.718 254.153L143.458 253.847L140.482 246.647L139.742 246.953ZM127.378 241.049L132.706 228.185L131.966 227.879L126.638 240.743L127.378 241.049ZM131.966 228.185L137.294 241.049L138.034 240.743L132.706 227.879L131.966 228.185ZM137.664 240.496H127.008V241.296H137.664V240.496ZM161.358 231.584H160.958V232.809L161.681 231.82L161.358 231.584ZM161.358 228.176H161.758V227.776H161.358V228.176ZM154.206 228.176V227.776H153.806V228.176H154.206ZM154.206 254H153.806V254.4H154.206V254ZM161.694 254V254.4H162.094V254H161.694ZM170.238 234.704L170.207 235.103L170.638 235.136V234.704H170.238ZM170.238 227.792H170.638V227.392H170.238V227.792ZM161.758 231.584V228.176H160.958V231.584H161.758ZM161.358 227.776H154.206V228.576H161.358V227.776ZM153.806 228.176V254H154.606V228.176H153.806ZM154.206 254.4H161.694V253.6H154.206V254.4ZM162.094 254V241.808H161.294V254H162.094ZM162.094 241.808C162.094 239.408 162.757 237.725 163.859 236.639C164.962 235.552 166.564 235.008 168.558 235.008V234.208C166.424 234.208 164.594 234.792 163.297 236.069C161.999 237.347 161.294 239.264 161.294 241.808H162.094ZM168.558 235.008C169.114 235.008 169.573 235.054 170.207 235.103L170.269 234.305C169.655 234.258 169.154 234.208 168.558 234.208V235.008ZM170.638 234.704V227.792H169.838V234.704H170.638ZM170.238 227.392C166.169 227.392 162.957 228.719 161.035 231.348L161.681 231.82C163.407 229.457 166.339 228.192 170.238 228.192V227.392ZM181.842 231.584H181.442V232.809L182.165 231.82L181.842 231.584ZM181.842 228.176H182.242V227.776H181.842V228.176ZM174.69 228.176V227.776H174.29V228.176H174.69ZM174.69 254H174.29V254.4H174.69V254ZM182.178 254V254.4H182.578V254H182.178ZM190.722 234.704L190.692 235.103L191.122 235.136V234.704H190.722ZM190.722 227.792H191.122V227.392H190.722V227.792ZM182.242 231.584V228.176H181.442V231.584H182.242ZM181.842 227.776H174.69V228.576H181.842V227.776ZM174.29 228.176V254H175.09V228.176H174.29ZM174.69 254.4H182.178V253.6H174.69V254.4ZM182.578 254V241.808H181.778V254H182.578ZM182.578 241.808C182.578 239.408 183.241 237.725 184.343 236.639C185.447 235.552 187.048 235.008 189.042 235.008V234.208C186.908 234.208 185.078 234.792 183.782 236.069C182.484 237.347 181.778 239.264 181.778 241.808H182.578ZM189.042 235.008C189.599 235.008 190.057 235.054 190.692 235.103L190.753 234.305C190.139 234.258 189.638 234.208 189.042 234.208V235.008ZM191.122 234.704V227.792H190.322V234.704H191.122ZM190.722 227.392C186.654 227.392 183.441 228.719 181.519 231.348L182.165 231.82C183.892 229.457 186.823 228.192 190.722 228.192V227.392ZM195.175 254H194.775V254.4H195.175V254ZM202.663 254V254.4H203.063V254H202.663ZM202.663 228.176H203.063V227.776H202.663V228.176ZM195.175 228.176V227.776H194.775V228.176H195.175ZM198.919 224.976C200.399 224.976 201.665 224.49 202.565 223.643C203.466 222.796 203.975 221.608 203.975 220.256H203.175C203.175 221.4 202.748 222.372 202.017 223.061C201.284 223.75 200.222 224.176 198.919 224.176V224.976ZM203.975 220.256C203.975 217.686 201.875 215.824 198.919 215.824V216.624C201.53 216.624 203.175 218.218 203.175 220.256H203.975ZM198.919 215.824C195.946 215.824 193.863 217.796 193.863 220.4H194.663C194.663 218.3 196.323 216.624 198.919 216.624V215.824ZM193.863 220.4C193.863 223.004 195.946 224.976 198.919 224.976V224.176C196.323 224.176 194.663 222.5 194.663 220.4H193.863ZM195.175 254.4H202.663V253.6H195.175V254.4ZM203.063 254V228.176H202.263V254H203.063ZM202.663 227.776H195.175V228.576H202.663V227.776ZM194.775 228.176V254H195.575V228.176H194.775ZM228.044 228.176V227.776H227.779L227.676 228.021L228.044 228.176ZM220.652 245.744L220.282 245.895L220.646 246.79L221.021 245.899L220.652 245.744ZM213.5 228.176L213.871 228.025L213.769 227.776H213.5V228.176ZM205.772 228.176V227.776H205.17L205.403 228.331L205.772 228.176ZM216.62 254L216.251 254.155L216.354 254.4H216.62V254ZM224.348 254V254.4H224.614L224.717 254.155L224.348 254ZM235.244 228.176L235.613 228.331L235.847 227.776H235.244V228.176ZM227.676 228.021L220.284 245.589L221.021 245.899L228.413 228.331L227.676 228.021ZM221.023 245.593L213.871 228.025L213.13 228.327L220.282 245.895L221.023 245.593ZM213.5 227.776H205.772V228.576H213.5V227.776ZM205.403 228.331L216.251 254.155L216.989 253.845L206.141 228.021L205.403 228.331ZM216.62 254.4H224.348V253.6H216.62V254.4ZM224.717 254.155L235.613 228.331L234.876 228.02L223.98 253.845L224.717 254.155ZM235.244 227.776H228.044V228.576H235.244V227.776ZM261.069 250.208L261.369 250.472L261.607 250.201L261.363 249.937L261.069 250.208ZM257.085 245.888L257.379 245.617L257.104 245.319L256.81 245.597L257.085 245.888ZM243.213 243.2V242.8H242.713L242.822 243.287L243.213 243.2ZM262.749 243.2V243.6H263.119L263.147 243.231L262.749 243.2ZM255.837 238.832V239.232H256.307L256.231 238.768L255.837 238.832ZM243.117 238.832L242.722 238.769L242.648 239.232H243.117V238.832ZM263.293 241.184C263.293 236.934 261.791 233.478 259.293 231.085C256.798 228.695 253.334 227.392 249.453 227.392V228.192C253.155 228.192 256.412 229.433 258.74 231.663C261.066 233.89 262.493 237.13 262.493 241.184H263.293ZM249.453 227.392C241.376 227.392 235.277 233.123 235.277 241.088H236.077C236.077 233.597 241.785 228.192 249.453 228.192V227.392ZM235.277 241.088C235.277 245.033 236.771 248.466 239.426 250.91C242.079 253.352 245.864 254.784 250.413 254.784V253.984C246.033 253.984 242.451 252.608 239.968 250.322C237.486 248.038 236.077 244.823 236.077 241.088H235.277ZM250.413 254.784C255.153 254.784 258.875 253.315 261.369 250.472L260.768 249.944C258.462 252.573 254.984 253.984 250.413 253.984V254.784ZM261.363 249.937L257.379 245.617L256.791 246.159L260.775 250.479L261.363 249.937ZM256.81 245.597C255.11 247.205 253.241 247.984 250.605 247.984V248.784C253.44 248.784 255.507 247.931 257.36 246.179L256.81 245.597ZM250.605 247.984C246.813 247.984 244.273 246.107 243.603 243.113L242.822 243.287C243.592 246.725 246.524 248.784 250.605 248.784V247.984ZM243.213 243.6H262.749V242.8H243.213V243.6ZM263.147 243.231C263.193 242.636 263.293 241.78 263.293 241.184H262.493C262.493 241.74 262.4 242.516 262.35 243.169L263.147 243.231ZM249.501 233.856C252.664 233.856 254.945 235.825 255.442 238.896L256.231 238.768C255.672 235.311 253.057 233.056 249.501 233.056V233.856ZM255.837 238.432H243.117V239.232H255.837V238.432ZM243.512 238.895C243.762 237.323 244.463 236.07 245.486 235.208C246.51 234.346 247.879 233.856 249.501 233.856V233.056C247.714 233.056 246.156 233.598 244.971 234.596C243.786 235.594 242.999 237.029 242.722 238.769L243.512 238.895ZM288.96 230.912H288.56V231.947L289.256 231.181L288.96 230.912ZM288.96 218.384H289.36V217.984H288.96V218.384ZM281.472 218.384V217.984H281.072V218.384H281.472ZM281.472 254H281.072V254.4H281.472V254ZM288.624 254V254.4H289.024V254H288.624ZM288.624 251.024L288.931 250.769L288.224 249.916V251.024H288.624ZM296.736 227.392C293.431 227.392 290.674 228.431 288.664 230.643L289.256 231.181C291.085 229.169 293.608 228.192 296.736 228.192V227.392ZM289.36 230.912V218.384H288.56V230.912H289.36ZM288.96 217.984H281.472V218.784H288.96V217.984ZM281.072 218.384V254H281.872V218.384H281.072ZM281.472 254.4H288.624V253.6H281.472V254.4ZM289.024 254V251.024H288.224V254H289.024ZM288.316 251.279C290.282 253.649 293.192 254.784 296.736 254.784V253.984C293.367 253.984 290.71 252.911 288.931 250.769L288.316 251.279ZM296.736 254.784C300.457 254.784 303.777 253.452 306.168 251.061C308.561 248.669 310 245.239 310 241.088H309.2C309.2 245.049 307.831 248.267 305.603 250.495C303.374 252.724 300.263 253.984 296.736 253.984V254.784ZM310 241.088C310 236.937 308.561 233.507 306.168 231.115C303.777 228.724 300.457 227.392 296.736 227.392V228.192C300.263 228.192 303.374 229.452 305.603 231.681C307.831 233.909 309.2 237.127 309.2 241.088H310ZM295.44 247.84C293.666 247.84 292.13 247.205 291.037 246.062C289.943 244.917 289.264 243.234 289.264 241.088H288.464C288.464 243.406 289.2 245.299 290.459 246.614C291.717 247.931 293.469 248.64 295.44 248.64V247.84ZM289.264 241.088C289.264 238.942 289.943 237.259 291.037 236.114C292.13 234.971 293.666 234.336 295.44 234.336V233.536C293.469 233.536 291.717 234.245 290.459 235.562C289.2 236.877 288.464 238.77 288.464 241.088H289.264ZM295.44 234.336C297.213 234.336 298.749 234.971 299.843 236.114C300.936 237.259 301.616 238.942 301.616 241.088H302.416C302.416 238.77 301.679 236.877 300.421 235.562C299.162 234.245 297.41 233.536 295.44 233.536V234.336ZM301.616 241.088C301.616 243.234 300.936 244.917 299.843 246.062C298.749 247.205 297.213 247.84 295.44 247.84V248.64C297.41 248.64 299.162 247.931 300.421 246.614C301.679 245.299 302.416 243.406 302.416 241.088H301.616ZM314.612 254H314.212V254.4H314.612V254ZM322.1 254V254.4H322.5V254H322.1ZM322.1 228.176H322.5V227.776H322.1V228.176ZM314.612 228.176V227.776H314.212V228.176H314.612ZM318.356 224.976C319.837 224.976 321.103 224.49 322.002 223.643C322.903 222.796 323.412 221.608 323.412 220.256H322.612C322.612 221.4 322.185 222.372 321.454 223.061C320.722 223.75 319.66 224.176 318.356 224.176V224.976ZM323.412 220.256C323.412 217.686 321.313 215.824 318.356 215.824V216.624C320.968 216.624 322.612 218.218 322.612 220.256H323.412ZM318.356 215.824C315.384 215.824 313.3 217.796 313.3 220.4H314.1C314.1 218.3 315.761 216.624 318.356 216.624V215.824ZM313.3 220.4C313.3 223.004 315.384 224.976 318.356 224.976V224.176C315.761 224.176 314.1 222.5 314.1 220.4H313.3ZM314.612 254.4H322.1V253.6H314.612V254.4ZM322.5 254V228.176H321.7V254H322.5ZM322.1 227.776H314.612V228.576H322.1V227.776ZM314.212 228.176V254H315.012V228.176H314.212ZM352.522 250.208L352.822 250.472L353.06 250.201L352.816 249.937L352.522 250.208ZM348.538 245.888L348.832 245.617L348.557 245.319L348.263 245.597L348.538 245.888ZM334.666 243.2V242.8H334.166L334.275 243.287L334.666 243.2ZM354.202 243.2V243.6H354.572L354.601 243.231L354.202 243.2ZM347.29 238.832V239.232H347.76L347.685 238.768L347.29 238.832ZM334.57 238.832L334.175 238.769L334.101 239.232H334.57V238.832ZM354.746 241.184C354.746 236.934 353.245 233.478 350.746 231.085C348.251 228.695 344.787 227.392 340.906 227.392V228.192C344.608 228.192 347.865 229.433 350.193 231.663C352.519 233.89 353.946 237.13 353.946 241.184H354.746ZM340.906 227.392C332.829 227.392 326.73 233.123 326.73 241.088H327.53C327.53 233.597 333.239 228.192 340.906 228.192V227.392ZM326.73 241.088C326.73 245.033 328.224 248.466 330.879 250.91C333.532 253.352 337.318 254.784 341.866 254.784V253.984C337.486 253.984 333.904 252.608 331.421 250.322C328.94 248.038 327.53 244.823 327.53 241.088H326.73ZM341.866 254.784C346.606 254.784 350.328 253.315 352.822 250.472L352.221 249.944C349.915 252.573 346.438 253.984 341.866 253.984V254.784ZM352.816 249.937L348.832 245.617L348.244 246.159L352.228 250.479L352.816 249.937ZM348.263 245.597C346.563 247.205 344.695 247.984 342.058 247.984V248.784C344.893 248.784 346.96 247.931 348.813 246.179L348.263 245.597ZM342.058 247.984C338.266 247.984 335.727 246.107 335.056 243.113L334.275 243.287C335.045 246.725 337.977 248.784 342.058 248.784V247.984ZM334.666 243.6H354.202V242.8H334.666V243.6ZM354.601 243.231C354.646 242.636 354.746 241.78 354.746 241.184H353.946C353.946 241.74 353.853 242.516 353.803 243.169L354.601 243.231ZM340.954 233.856C344.117 233.856 346.398 235.825 346.895 238.896L347.685 238.768C347.125 235.311 344.511 233.056 340.954 233.056V233.856ZM347.29 238.432H334.57V239.232H347.29V238.432ZM334.965 238.895C335.215 237.323 335.917 236.07 336.939 235.208C337.963 234.346 339.332 233.856 340.954 233.856V233.056C339.167 233.056 337.609 233.598 336.424 234.596C335.239 235.594 334.452 237.029 334.175 238.769L334.965 238.895ZM366.483 231.2H366.083V232.231L366.778 231.47L366.483 231.2ZM366.483 228.176H366.883V227.776H366.483V228.176ZM359.331 228.176V227.776H358.931V228.176H359.331ZM359.331 254H358.931V254.4H359.331V254ZM366.819 254V254.4H367.219V254H366.819ZM378.243 254H377.843V254.4H378.243V254ZM385.731 254V254.4H386.131V254H385.731ZM375.027 227.392C371.433 227.392 368.293 228.624 366.188 230.93L366.778 231.47C368.705 229.36 371.613 228.192 375.027 228.192V227.392ZM366.883 231.2V228.176H366.083V231.2H366.883ZM366.483 227.776H359.331V228.576H366.483V227.776ZM358.931 228.176V254H359.731V228.176H358.931ZM359.331 254.4H366.819V253.6H359.331V254.4ZM367.219 254V241.232H366.419V254H367.219ZM367.219 241.232C367.219 238.927 367.847 237.298 368.854 236.247C369.86 235.197 371.293 234.672 373.011 234.672V233.872C371.129 233.872 369.466 234.451 368.276 235.693C367.087 236.934 366.419 238.785 366.419 241.232H367.219ZM373.011 234.672C374.589 234.672 375.774 235.127 376.571 236.02C377.375 236.922 377.843 238.334 377.843 240.368H378.643C378.643 238.226 378.151 236.59 377.167 235.488C376.176 234.377 374.745 233.872 373.011 233.872V234.672ZM377.843 240.368V254H378.643V240.368H377.843ZM378.243 254.4H385.731V253.6H378.243V254.4ZM386.131 254V239.216H385.331V254H386.131ZM386.131 239.216C386.131 235.201 384.954 232.231 382.945 230.266C380.938 228.303 378.151 227.392 375.027 227.392V228.192C377.999 228.192 380.564 229.057 382.385 230.838C384.204 232.617 385.331 235.359 385.331 239.216H386.131ZM407.159 247.472L407.532 247.329L407.341 246.829L406.916 247.154L407.159 247.472ZM400.919 234.512V234.112H400.519V234.512H400.919ZM407.351 234.512V234.912H407.751V234.512H407.351ZM407.351 228.752H407.751V228.352H407.351V228.752ZM400.919 228.752H400.519V229.152H400.919V228.752ZM400.919 222.464H401.319V222.064H400.919V222.464ZM393.431 222.464V222.064H393.031V222.464H393.431ZM393.431 228.752V229.152H393.831V228.752H393.431ZM389.447 228.752V228.352H389.047V228.752H389.447ZM389.447 234.512H389.047V234.912H389.447V234.512ZM393.431 234.512H393.831V234.112H393.431V234.512ZM409.175 252.752L409.408 253.077L409.658 252.897L409.548 252.609L409.175 252.752ZM406.916 247.154C406.179 247.718 405.164 248.032 404.135 248.032V248.832C405.313 248.832 406.506 248.474 407.401 247.79L406.916 247.154ZM404.135 248.032C403.206 248.032 402.518 247.758 402.059 247.279C401.599 246.799 401.319 246.058 401.319 245.024H400.519C400.519 246.198 400.838 247.161 401.482 247.833C402.127 248.506 403.047 248.832 404.135 248.832V248.032ZM401.319 245.024V234.512H400.519V245.024H401.319ZM400.919 234.912H407.351V234.112H400.919V234.912ZM407.751 234.512V228.752H406.951V234.512H407.751ZM407.351 228.352H400.919V229.152H407.351V228.352ZM401.319 228.752V222.464H400.519V228.752H401.319ZM400.919 222.064H393.431V222.864H400.919V222.064ZM393.031 222.464V228.752H393.831V222.464H393.031ZM393.431 228.352H389.447V229.152H393.431V228.352ZM389.047 228.752V234.512H389.847V228.752H389.047ZM389.447 234.912H393.431V234.112H389.447V234.912ZM393.031 234.512V245.12H393.831V234.512H393.031ZM393.031 245.12C393.031 248.269 393.943 250.704 395.695 252.348C397.443 253.987 399.967 254.784 403.079 254.784V253.984C400.094 253.984 397.794 253.221 396.242 251.764C394.694 250.312 393.831 248.115 393.831 245.12H393.031ZM403.079 254.784C405.431 254.784 407.78 254.247 409.408 253.077L408.941 252.427C407.497 253.465 405.334 253.984 403.079 253.984V254.784ZM409.548 252.609L407.532 247.329L406.785 247.615L408.801 252.895L409.548 252.609ZM424.773 221.216L425.036 220.915L424.773 220.685L424.51 220.915L424.773 221.216ZM428.949 224.864L428.686 225.165L428.799 225.264H428.949V224.864ZM434.421 224.864V225.264H435.33L434.716 224.594L434.421 224.864ZM428.085 217.952L428.38 217.682L428.261 217.552H428.085V217.952ZM421.461 217.952V217.552H421.285L421.166 217.682L421.461 217.952ZM415.125 224.864L414.83 224.594L414.216 225.264H415.125V224.864ZM420.597 224.864V225.264H420.747L420.86 225.165L420.597 224.864ZM424.51 221.517L428.686 225.165L429.212 224.563L425.036 220.915L424.51 221.517ZM428.949 225.264H434.421V224.464H428.949V225.264ZM434.716 224.594L428.38 217.682L427.79 218.222L434.126 225.134L434.716 224.594ZM428.085 217.552H421.461V218.352H428.085V217.552ZM421.166 217.682L414.83 224.594L415.42 225.134L421.756 218.222L421.166 217.682ZM415.125 225.264H420.597V224.464H415.125V225.264ZM420.86 225.165L425.036 221.517L424.51 220.915L420.334 224.563L420.86 225.165ZM424.869 227.392C416.467 227.392 410.261 233.065 410.261 241.088H411.061C411.061 233.559 416.855 228.192 424.869 228.192V227.392ZM410.261 241.088C410.261 249.111 416.467 254.784 424.869 254.784V253.984C416.855 253.984 411.061 248.617 411.061 241.088H410.261ZM424.869 254.784C433.272 254.784 439.429 249.11 439.429 241.088H438.629C438.629 248.618 432.882 253.984 424.869 253.984V254.784ZM439.429 241.088C439.429 233.066 433.272 227.392 424.869 227.392V228.192C432.882 228.192 438.629 233.558 438.629 241.088H439.429ZM424.869 247.84C423.095 247.84 421.546 247.205 420.441 246.06C419.335 244.915 418.645 243.232 418.645 241.088H417.845C417.845 243.408 418.595 245.301 419.865 246.616C421.136 247.931 422.899 248.64 424.869 248.64V247.84ZM418.645 241.088C418.645 238.944 419.335 237.261 420.441 236.116C421.546 234.971 423.095 234.336 424.869 234.336V233.536C422.899 233.536 421.136 234.245 419.865 235.56C418.595 236.875 417.845 238.768 417.845 241.088H418.645ZM424.869 234.336C426.642 234.336 428.178 234.971 429.272 236.114C430.366 237.259 431.045 238.942 431.045 241.088H431.845C431.845 238.77 431.108 236.877 429.85 235.562C428.592 234.245 426.84 233.536 424.869 233.536V234.336ZM431.045 241.088C431.045 243.234 430.366 244.917 429.272 246.062C428.178 247.205 426.642 247.84 424.869 247.84V248.64C426.84 248.64 428.592 247.931 429.85 246.614C431.108 245.299 431.845 243.406 431.845 241.088H431.045ZM458.674 247.472L459.048 247.329L458.857 246.829L458.431 247.154L458.674 247.472ZM452.434 234.512V234.112H452.034V234.512H452.434ZM458.866 234.512V234.912H459.266V234.512H458.866ZM458.866 228.752H459.266V228.352H458.866V228.752ZM452.434 228.752H452.034V229.152H452.434V228.752ZM452.434 222.464H452.834V222.064H452.434V222.464ZM444.946 222.464V222.064H444.546V222.464H444.946ZM444.946 228.752V229.152H445.346V228.752H444.946ZM440.962 228.752V228.352H440.562V228.752H440.962ZM440.962 234.512H440.562V234.912H440.962V234.512ZM444.946 234.512H445.346V234.112H444.946V234.512ZM460.69 252.752L460.924 253.077L461.174 252.897L461.064 252.609L460.69 252.752ZM458.431 247.154C457.695 247.718 456.679 248.032 455.65 248.032V248.832C456.829 248.832 458.022 248.474 458.917 247.79L458.431 247.154ZM455.65 248.032C454.722 248.032 454.033 247.758 453.575 247.279C453.114 246.799 452.834 246.058 452.834 245.024H452.034C452.034 246.198 452.354 247.161 452.997 247.833C453.643 248.506 454.562 248.832 455.65 248.832V248.032ZM452.834 245.024V234.512H452.034V245.024H452.834ZM452.434 234.912H458.866V234.112H452.434V234.912ZM459.266 234.512V228.752H458.466V234.512H459.266ZM458.866 228.352H452.434V229.152H458.866V228.352ZM452.834 228.752V222.464H452.034V228.752H452.834ZM452.434 222.064H444.946V222.864H452.434V222.064ZM444.546 222.464V228.752H445.346V222.464H444.546ZM444.946 228.352H440.962V229.152H444.946V228.352ZM440.562 228.752V234.512H441.362V228.752H440.562ZM440.962 234.912H444.946V234.112H440.962V234.912ZM444.546 234.512V245.12H445.346V234.512H444.546ZM444.546 245.12C444.546 248.269 445.458 250.704 447.21 252.348C448.958 253.987 451.482 254.784 454.594 254.784V253.984C451.61 253.984 449.31 253.221 447.758 251.764C446.21 250.312 445.346 248.115 445.346 245.12H444.546ZM454.594 254.784C456.946 254.784 459.295 254.247 460.924 253.077L460.457 252.427C459.013 253.465 456.85 253.984 454.594 253.984V254.784ZM461.064 252.609L459.048 247.329L458.3 247.615L460.316 252.895L461.064 252.609Z" fill="white"/>
<g clip-path="url(#clip0)">
<path d="M1244.41 409.471V388.06H1310.97V350.551H1336.69V388.143H1425.74V409.554H1244.41V409.471ZM1271.14 497.187V427.894H1399.6V449.304H1296.7V475.859H1403.75V497.187H1271.14ZM1398.35 310.469C1398.35 338.352 1397.36 360.924 1395.45 378.102L1371.13 376.857C1372.05 368.061 1372.63 353.123 1373.04 331.879H1271.55V310.469H1398.35Z" stroke="white"/>
<path d="M1524.82 474.781V453.619H1602.66V414.782H1553.7V323.332H1677.27V344.493H1579.18V393.621H1680.17V414.782H1628.14V453.619H1706.15V474.781H1524.82Z" stroke="white"/>
<path d="M1837.84 413.454C1829.55 410.467 1820.75 405.488 1811.37 398.351C1801.99 391.214 1795.52 384.658 1791.79 378.6C1782.41 394.367 1767.64 407.562 1747.39 418.184L1729.88 400.923C1744.49 395.529 1756.1 387.895 1764.82 378.019C1773.53 368.144 1778.01 357.605 1778.34 346.319H1735.36V325.157H1778.51V303.415H1804.07V325.157H1847.06V346.319H1804.07C1804.32 357.024 1809.46 367.065 1819.42 376.36C1829.38 385.654 1840.5 391.629 1852.78 394.202L1837.84 413.454ZM1864.65 501.585V449.304H1761.75V427.894H1889.96V501.502H1864.65V501.585ZM1890.04 377.272V419.595H1864.48V306.154H1890.04V356.028H1919.59V377.272H1890.04Z" stroke="white"/>
</g>
<path d="M1103.06 183.579C1087.53 164.647 1061.8 143.865 1030.82 130.01C1037.66 138.229 1043.13 147.651 1046.78 157.935C1061.03 166.927 1074.02 177.641 1084.95 189C1078.28 195.927 1065.11 208.405 1046.78 220.022C1043.08 230.306 1037.66 239.772 1030.78 247.99C1062.32 233.834 1088.05 212.665 1103.06 194.421C1105.65 191.281 1105.65 186.72 1103.06 183.579Z" fill="white"/>
<path d="M816.936 183.579C814.355 186.72 814.355 191.238 816.936 194.378C832.727 213.654 858.5 234.221 889.178 247.947C882.337 239.729 876.872 230.306 873.172 220.022C859.016 211.073 845.979 200.402 835.05 189C841.72 182.073 854.886 169.595 873.215 157.978C876.872 147.694 882.337 138.229 889.221 130.01C858.113 143.951 832.34 164.776 816.936 183.579Z" fill="white"/>
<path d="M968.519 72.4407V52.5193C968.519 47.8294 964.69 44 960 44C955.31 44 951.481 47.8294 951.481 52.5193V72.4407C951.481 77.1306 955.31 80.9599 960 80.9599C964.69 80.9599 968.519 77.1306 968.519 72.4407Z" fill="white"/>
<path d="M1030.69 57.6396C1026.61 55.3161 1021.4 56.736 1019.08 60.8235L1007.72 80.7449C1005.39 84.8324 1006.81 90.0387 1010.9 92.3621C1014.99 94.6856 1020.19 93.2657 1022.52 89.1781L1033.88 69.2568C1036.2 65.2123 1034.78 59.963 1030.69 57.6396Z" fill="white"/>
<path d="M900.924 60.8235C898.601 56.736 893.395 55.3161 889.307 57.6396C885.22 59.963 883.8 65.1692 886.123 69.2568L897.482 89.1781C899.806 93.2657 905.012 94.6856 909.099 92.3621C913.187 90.0387 914.607 84.8324 912.283 80.7449L900.924 60.8235Z" fill="white"/>
<path d="M951.481 305.559V325.481C951.481 330.171 955.31 334 960 334C964.69 334 968.519 330.171 968.519 325.481V305.559C968.519 300.869 964.69 297.04 960 297.04C955.31 297.04 951.481 300.869 951.481 305.559Z" fill="white"/>
<path d="M897.482 288.822L886.123 308.743C883.8 312.831 885.22 318.037 889.307 320.361C893.395 322.684 898.601 321.264 900.924 317.177L912.283 297.255C914.607 293.168 913.187 287.962 909.099 285.638C905.012 283.315 899.806 284.735 897.482 288.822Z" fill="white"/>
<path d="M1010.9 285.638C1006.81 287.962 1005.39 293.168 1007.72 297.255L1019.08 317.177C1021.4 321.264 1026.61 322.684 1030.69 320.361C1034.78 318.037 1036.2 312.831 1033.88 308.743L1022.52 288.822C1020.19 284.735 1014.99 283.315 1010.9 285.638Z" fill="white"/>
<path d="M1026.82 155.998C1020.45 143.004 1010.43 132.119 998.079 124.718C986.849 117.963 973.683 114.047 959.656 114.004H959.441C958.795 114.004 958.15 114.004 957.505 114.004C933.754 114.607 912.714 126.267 899.418 144.037C890.039 156.558 884.445 172.133 884.445 189C884.445 192.227 884.66 195.411 885.048 198.552C886.726 211.718 891.803 223.809 899.375 233.963C912.714 251.733 933.711 263.393 957.505 263.995C958.15 263.995 958.795 263.995 959.441 263.995H959.656C1000.96 263.866 1034.44 230.349 1034.44 189C1034.48 177.168 1031.73 165.938 1026.82 155.998ZM960 246.957C928.031 246.957 902.043 220.969 902.043 189C902.043 163.958 918.049 142.531 940.337 134.485C929.967 144.166 923.513 157.978 923.513 173.252C923.513 202.553 947.264 226.347 976.608 226.347C990.85 226.347 1003.8 220.711 1013.35 211.589C1004.53 232.328 983.923 246.957 960 246.957Z" fill="white"/>
<defs>
<clipPath id="clip0">
<rect width="676" height="199" fill="white" transform="translate(1244 303)"/>
</clipPath>
</defs>
</svg>
