<svg width="40" height="40" viewBox="0 0 40 40" fill="none" xmlns="http://www.w3.org/2000/svg">
<g clip-path="url(#clip0)">
<path d="M36.6667 11.6666H25V8.33331H36.6667V11.6666ZM39.5433 28.3333C38.8067 30.495 36.1617 33.3333 31.0417 33.3333C25.9183 33.3333 21.7683 30.4516 21.7683 23.875C21.7683 17.3583 25.6433 14.0083 30.8783 14.0083C36.015 14.0083 39.1517 16.9783 39.8367 21.385C39.9667 22.2283 40.0183 23.365 39.995 24.9516H26.6167C26.8333 30.3033 32.4217 30.4716 34.2633 28.3333H39.5433ZM26.7333 21.6666H35.0083C34.8333 19.0883 33.115 17.9683 30.88 17.9683C28.4367 17.9683 27.085 19.2483 26.7333 21.6666ZM10.7767 33.3133H0V8.36831H11.5883C20.715 8.50331 20.8883 17.4416 16.1217 19.8783C21.89 21.9783 22.0833 33.3133 10.7767 33.3133ZM5 18.3333H10.9733C15.1533 18.3333 15.8167 13.3333 10.4533 13.3333H5V18.3333ZM10.6517 23.3333H5V28.36H10.5683C15.66 28.36 15.3483 23.3333 10.6517 23.3333Z" fill="black"/>
</g>
<defs>
<clipPath id="clip0">
<rect width="40" height="40" fill="white"/>
</clipPath>
</defs>
</svg>
