<svg width="96" height="51" viewBox="0 0 96 51" fill="none" xmlns="http://www.w3.org/2000/svg">
<g clip-path="url(#clip0)">
<path d="M14.6667 28.9603C10.6284 28.9603 7.17414 27.5745 4.30394 24.8029C1.43374 22.0313 -0.00137102 18.6182 -0.00137102 14.5636C-0.0306747 12.6672 0.323479 10.7846 1.03964 9.02969C1.75581 7.2748 2.8191 5.68415 4.16513 4.354C6.9428 1.526 10.3318 0.11199 14.3322 0.11199C16.6058 0.0814014 18.8537 0.59787 20.888 1.61819C22.7537 2.54271 24.3725 3.90143 25.6097 5.58132H31.2758V0H41.609V28.7386H31.2758V25.5023H25.6666V23.4453C24.4318 25.1238 22.8244 26.4901 20.9722 27.4359C19.0266 28.4556 16.8612 28.9792 14.6667 28.9603ZM5.61009 30.8574H41.609V50.9452H31.2758V39.3962H5.61009V30.8574ZM10.7209 14.5636C10.7058 16.0729 11.0991 17.5581 11.8587 18.8604C12.6172 20.1632 13.5707 20.8146 14.719 20.8146C15.8295 20.8146 16.7738 20.0703 17.5521 18.5816C18.189 17.3982 18.5325 16.0779 18.5533 14.7327C18.5659 13.3719 18.2405 12.0295 17.6067 10.8267C16.83 9.37616 15.7931 8.6501 14.496 8.64858C13.3097 8.64858 12.3843 9.25348 11.7199 10.4633C11.0415 11.7211 10.6974 13.1333 10.7209 14.5636ZM31.2758 13.0574H28.5452V17.7451H31.2758V13.0574Z" fill="#EE0202"/>
<path d="M77.3338 0.948489V17.9119H63.3894V20.1449H80.556V28.0689H60.9432C57.5739 28.0689 55.4448 27.4731 54.5558 26.2816C53.9247 25.4268 53.6099 23.3995 53.6115 20.1998V10.6575H67.5673V8.92965H53.6228V0.948489H77.3338ZM73.1673 28.8483C77.6835 28.8483 81.7757 29.8342 85.4438 31.8058C89.4806 34.0015 91.499 36.7175 91.499 39.9538C91.499 43.3746 89.4806 46.1271 85.4438 48.2116C81.8515 50.072 77.6661 51.0023 72.8874 51.0023C68.2226 51.0023 64.019 50.0164 60.2765 48.0447C56.1669 45.8871 54.1121 43.1529 54.1121 39.8419C54.1121 36.4562 56.204 33.7219 60.388 31.639C64.1289 29.7785 68.3887 28.8483 73.1673 28.8483ZM64.4452 39.787C64.4452 41.1995 65.3896 42.3521 67.2783 43.245C69.0577 44.0508 70.9927 44.4513 72.9443 44.4176C74.9817 44.4176 76.7407 44.0823 78.2213 43.4119C79.9977 42.5936 80.8867 41.441 80.8882 39.9538C80.8897 38.4667 80.0751 37.3239 78.4443 36.5255C76.7636 35.7155 74.9199 35.305 73.0558 35.3256C71.0172 35.2972 68.9941 35.686 67.1099 36.4684C65.3319 37.2302 64.4437 38.3364 64.4452 39.787ZM81.5549 0.111938H91.3397V6.027H96.0114V13.1122H91.3442V16.6274H96.0114V23.7698H91.3442V29.5729H81.5595L81.5549 0.111938Z" fill="#EE0202"/>
</g>
<defs>
<clipPath id="clip0">
<rect width="96" height="51" fill="white"/>
</clipPath>
</defs>
</svg>
