<svg width="676" height="199" viewBox="0 0 676 199" fill="none" xmlns="http://www.w3.org/2000/svg">
<g clip-path="url(#clip0)">
<path d="M0.414917 106.471V85.0605H66.9693V47.5509H92.6948V85.1435H181.738V106.554H0.414917V106.471ZM27.1363 194.187V124.894H155.598V146.304H52.6958V172.859H159.747V194.187H27.1363ZM154.353 7.46875C154.353 35.352 153.357 57.9241 151.449 75.1022L127.134 73.8574C128.047 65.0609 128.628 50.1235 129.042 28.8791H27.5512V7.46875H154.353Z" stroke="white"/>
<path d="M280.823 171.781V150.619H358.663V111.782H309.702V20.3315H433.267V41.4929H335.179V90.6205H436.172V111.782H384.14V150.619H462.146V171.781H280.823Z" stroke="white"/>
<path d="M593.844 110.454C585.546 107.467 576.749 102.488 567.372 95.3508C557.995 88.214 551.522 81.6582 547.787 75.6002C538.41 91.3675 523.639 104.562 503.39 115.184L485.88 97.9234C500.486 92.5293 512.104 84.8946 520.817 75.0193C529.53 65.144 534.012 54.6048 534.344 43.3187H491.357V22.1573H534.51V0.415039H560.069V22.1573H603.056V43.3187H560.069C560.318 54.0239 565.463 64.0652 575.422 73.3596C585.38 82.654 596.5 88.629 608.782 91.2015L593.844 110.454ZM620.649 198.585V146.304H517.747V124.894H645.959V198.502H620.649V198.585ZM646.042 74.2724V116.595H620.483V3.15357H646.042V53.028H675.585V74.2724H646.042Z" stroke="white"/>
</g>
<defs>
<clipPath id="clip0">
<rect width="676" height="199" fill="white"/>
</clipPath>
</defs>
</svg>
