<svg width="142" height="51" viewBox="0 0 142 51" fill="none" xmlns="http://www.w3.org/2000/svg">
<path d="M10.4199 36.4446H27.3525V45.4436H8.96421C4.8769 45.4436 2.3792 45.009 1.47108 44.1399C0.562956 43.2707 0.106614 41.0393 0.102051 37.4458V1.05816H25.8489V10.0572H10.4199V36.4446ZM28.0211 0.225342H38.3823V50.8317H28.0211V0.225342Z" fill="#EE0202"/>
<path d="M78.557 42.9567L75.771 47.5666C74.402 47.0478 72.4337 45.7144 69.866 43.5665C66.9758 41.1591 65.0075 39.0855 63.9609 37.3457C62.5508 39.3101 60.4341 41.439 57.6109 43.7326C54.9367 45.9169 52.709 47.3982 50.9278 48.1764L46.7477 40.4561C51.2061 37.8257 54.4005 34.622 56.3309 30.8449C57.6468 28.3032 58.3344 25.4845 58.3365 22.624V10.1255H49.8075V1.06949H76.435V10.1255H68.4148V21.5683C68.4148 24.4216 69.1389 27.2916 70.587 30.1783C72.4283 33.7904 75.1736 36.8674 78.557 39.1113V0.225342H89.6415V16.5625H93.4862V24.6718H89.6415V50.8385H78.557V42.9567Z" fill="#EE0202"/>
<path d="M113.586 0.11377C117.933 0.11377 121.48 1.83621 124.225 5.28111C126.752 8.42718 128.015 12.2043 128.015 16.6124C128.015 20.9478 126.771 24.6513 124.282 27.7231C121.572 31.0603 118.063 32.7289 113.755 32.7289C109.409 32.7289 105.861 31.0443 103.113 27.6753C100.551 24.5626 99.2704 20.8219 99.2704 16.4532C99.2704 12.0845 100.588 8.30736 103.225 5.12185C106.011 1.78465 109.465 0.115286 113.586 0.11377ZM105.23 33.5002H116.148V42.3332H141.886V50.8885H111.359C108.834 50.8885 107.126 50.259 106.234 49C105.566 48.0732 105.232 46.4986 105.23 44.2763V33.5002ZM108.963 16.1688V16.3963C108.963 18.5048 109.343 20.338 110.104 21.8958C110.865 23.4537 112.025 24.2311 113.586 24.2281C114.999 24.2281 116.113 23.4317 116.929 21.8389C117.768 20.1488 118.188 18.2822 118.154 16.3963C118.154 14.2483 117.838 12.4705 117.207 11.0628C116.427 9.28655 115.276 8.39764 113.755 8.39613C112.234 8.39461 111.054 9.17203 110.216 10.7284C109.381 12.2817 108.963 14.0951 108.963 16.1688ZM130.131 0.11377H141.106V36.8882H130.124L130.131 0.11377Z" fill="#EE0202"/>
</svg>
