<svg width="350" height="40" viewBox="0 0 350 40" fill="none" xmlns="http://www.w3.org/2000/svg">
<path d="M31.088 39L30.7183 39.1528L30.8205 39.4H31.088V39ZM39.248 39V39.4H39.865L39.6132 38.8367L39.248 39ZM24.224 5.4L24.5892 5.23672L24.4833 5H24.224V5.4ZM16.544 5.4V5H16.2844L16.1786 5.23716L16.544 5.4ZM1.568 39L1.20265 38.8372L0.951781 39.4H1.568V39ZM9.536 39V39.4H9.80349L9.90567 39.1528L9.536 39ZM12.512 31.8V31.4H12.2445L12.1423 31.6472L12.512 31.8ZM28.112 31.8L28.4817 31.6472L28.3795 31.4H28.112V31.8ZM15.008 25.896L14.6384 25.7429L14.4094 26.296H15.008V25.896ZM20.336 13.032L20.7056 12.8789L20.336 11.9867L19.9664 12.8789L20.336 13.032ZM25.664 25.896V26.296H26.2626L26.0336 25.7429L25.664 25.896ZM31.088 39.4H39.248V38.6H31.088V39.4ZM39.6132 38.8367L24.5892 5.23672L23.8588 5.56328L38.8828 39.1633L39.6132 38.8367ZM24.224 5H16.544V5.8H24.224V5ZM16.1786 5.23716L1.20265 38.8372L1.93335 39.1628L16.9094 5.56284L16.1786 5.23716ZM1.568 39.4H9.536V38.6H1.568V39.4ZM9.90567 39.1528L12.8817 31.9528L12.1423 31.6472L9.16633 38.8472L9.90567 39.1528ZM12.512 32.2H28.112V31.4H12.512V32.2ZM27.7423 31.9528L30.7183 39.1528L31.4577 38.8472L28.4817 31.6472L27.7423 31.9528ZM15.3776 26.0491L20.7056 13.1851L19.9664 12.8789L14.6384 25.7429L15.3776 26.0491ZM19.9664 13.1851L25.2944 26.0491L26.0336 25.7429L20.7056 12.8789L19.9664 13.1851ZM25.664 25.496H15.008V26.296H25.664V25.496ZM49.358 16.584H48.958V17.8093L49.681 16.82L49.358 16.584ZM49.358 13.176H49.758V12.776H49.358V13.176ZM42.206 13.176V12.776H41.806V13.176H42.206ZM42.206 39H41.806V39.4H42.206V39ZM49.694 39V39.4H50.094V39H49.694ZM58.238 19.704L58.2073 20.1028L58.638 20.136V19.704H58.238ZM58.238 12.792H58.638V12.392H58.238V12.792ZM49.758 16.584V13.176H48.958V16.584H49.758ZM49.358 12.776H42.206V13.576H49.358V12.776ZM41.806 13.176V39H42.606V13.176H41.806ZM42.206 39.4H49.694V38.6H42.206V39.4ZM50.094 39V26.808H49.294V39H50.094ZM50.094 26.808C50.094 24.4085 50.7566 22.7245 51.8587 21.639C52.9622 20.552 54.5641 20.008 56.558 20.008V19.208C54.4239 19.208 52.5938 19.792 51.2973 21.069C49.9994 22.3475 49.294 24.2635 49.294 26.808H50.094ZM56.558 20.008C57.1142 20.008 57.573 20.054 58.2073 20.1028L58.2687 19.3052C57.655 19.258 57.1538 19.208 56.558 19.208V20.008ZM58.638 19.704V12.792H57.838V19.704H58.638ZM58.238 12.392C54.1693 12.392 50.9565 13.7186 49.035 16.348L49.681 16.82C51.4075 14.4574 54.3387 13.192 58.238 13.192V12.392ZM69.8424 16.584H69.4424V17.8093L70.1653 16.82L69.8424 16.584ZM69.8424 13.176H70.2424V12.776H69.8424V13.176ZM62.6904 13.176V12.776H62.2904V13.176H62.6904ZM62.6904 39H62.2904V39.4H62.6904V39ZM70.1784 39V39.4H70.5784V39H70.1784ZM78.7224 19.704L78.6917 20.1028L79.1224 20.136V19.704H78.7224ZM78.7224 12.792H79.1224V12.392H78.7224V12.792ZM70.2424 16.584V13.176H69.4424V16.584H70.2424ZM69.8424 12.776H62.6904V13.576H69.8424V12.776ZM62.2904 13.176V39H63.0904V13.176H62.2904ZM62.6904 39.4H70.1784V38.6H62.6904V39.4ZM70.5784 39V26.808H69.7784V39H70.5784ZM70.5784 26.808C70.5784 24.4085 71.241 22.7245 72.3431 21.639C73.4466 20.552 75.0485 20.008 77.0424 20.008V19.208C74.9083 19.208 73.0782 19.792 71.7817 21.069C70.4838 22.3475 69.7784 24.2635 69.7784 26.808H70.5784ZM77.0424 20.008C77.5986 20.008 78.0574 20.054 78.6917 20.1028L78.7531 19.3052C78.1393 19.258 77.6381 19.208 77.0424 19.208V20.008ZM79.1224 19.704V12.792H78.3224V19.704H79.1224ZM78.7224 12.392C74.6537 12.392 71.4409 13.7186 69.5194 16.348L70.1653 16.82C71.8918 14.4574 74.8231 13.192 78.7224 13.192V12.392ZM83.1748 39H82.7748V39.4H83.1748V39ZM90.6628 39V39.4H91.0628V39H90.6628ZM90.6628 13.176H91.0628V12.776H90.6628V13.176ZM83.1748 13.176V12.776H82.7748V13.176H83.1748ZM86.9188 9.976C88.3992 9.976 89.6654 9.48984 90.5649 8.64328C91.4656 7.79552 91.9748 6.60805 91.9748 5.256H91.1748C91.1748 6.39995 90.7479 7.37248 90.0166 8.06072C89.2841 8.75016 88.2223 9.176 86.9188 9.176V9.976ZM91.9748 5.256C91.9748 2.6855 89.8751 0.823997 86.9188 0.823997V1.624C89.5304 1.624 91.1748 3.21849 91.1748 5.256H91.9748ZM86.9188 0.823997C83.9463 0.823997 81.8628 2.79599 81.8628 5.4H82.6628C82.6628 3.3 84.3232 1.624 86.9188 1.624V0.823997ZM81.8628 5.4C81.8628 8.004 83.9463 9.976 86.9188 9.976V9.176C84.3232 9.176 82.6628 7.49999 82.6628 5.4H81.8628ZM83.1748 39.4H90.6628V38.6H83.1748V39.4ZM91.0628 39V13.176H90.2628V39H91.0628ZM90.6628 12.776H83.1748V13.576H90.6628V12.776ZM82.7748 13.176V39H83.5748V13.176H82.7748ZM116.044 13.176V12.776H115.779L115.676 13.0209L116.044 13.176ZM108.652 30.744L108.282 30.8948L108.646 31.7899L109.021 30.8991L108.652 30.744ZM101.5 13.176L101.871 13.0252L101.769 12.776H101.5V13.176ZM93.7722 13.176V12.776H93.1704L93.4035 13.3309L93.7722 13.176ZM104.62 39L104.251 39.1549L104.354 39.4H104.62V39ZM112.348 39V39.4H112.614L112.717 39.1555L112.348 39ZM123.244 13.176L123.613 13.3315L123.847 12.776H123.244V13.176ZM115.676 13.0209L108.284 30.5889L109.021 30.8991L116.413 13.3311L115.676 13.0209ZM109.023 30.5932L101.871 13.0252L101.13 13.3268L108.282 30.8948L109.023 30.5932ZM101.5 12.776H93.7722V13.576H101.5V12.776ZM93.4035 13.3309L104.251 39.1549L104.989 38.8451L94.141 13.0211L93.4035 13.3309ZM104.62 39.4H112.348V38.6H104.62V39.4ZM112.717 39.1555L123.613 13.3315L122.876 13.0205L111.98 38.8445L112.717 39.1555ZM123.244 12.776H116.044V13.576H123.244V12.776ZM149.069 35.208L149.369 35.4718L149.607 35.2013L149.363 34.9368L149.069 35.208ZM145.085 30.888L145.379 30.6168L145.104 30.319L144.81 30.5974L145.085 30.888ZM131.213 28.2V27.8H130.713L130.822 28.2874L131.213 28.2ZM150.749 28.2V28.6H151.119L151.147 28.2307L150.749 28.2ZM143.837 23.832V24.232H144.307L144.231 23.7681L143.837 23.832ZM131.117 23.832L130.722 23.769L130.648 24.232H131.117V23.832ZM151.293 26.184C151.293 21.9336 149.791 18.4776 147.293 16.0851C144.798 13.6951 141.334 12.392 137.453 12.392V13.192C141.155 13.192 144.412 14.4329 146.74 16.6629C149.066 18.8904 150.493 22.1304 150.493 26.184H151.293ZM137.453 12.392C129.376 12.392 123.277 18.1233 123.277 26.088H124.077C124.077 18.5967 129.785 13.192 137.453 13.192V12.392ZM123.277 26.088C123.277 30.0334 124.771 33.4663 127.426 35.9103C130.079 38.3524 133.864 39.784 138.413 39.784V38.984C134.033 38.984 130.451 37.6076 127.968 35.3217C125.486 33.0377 124.077 29.8226 124.077 26.088H123.277ZM138.413 39.784C143.153 39.784 146.875 38.3152 149.369 35.4718L148.768 34.9442C146.462 37.5728 142.984 38.984 138.413 38.984V39.784ZM149.363 34.9368L145.379 30.6168L144.791 31.1592L148.775 35.4792L149.363 34.9368ZM144.81 30.5974C143.11 32.2051 141.241 32.984 138.605 32.984V33.784C141.44 33.784 143.507 32.9309 145.36 31.1786L144.81 30.5974ZM138.605 32.984C134.813 32.984 132.273 31.1071 131.603 28.1126L130.822 28.2874C131.592 31.7249 134.524 33.784 138.605 33.784V32.984ZM131.213 28.6H150.749V27.8H131.213V28.6ZM151.147 28.2307C151.193 27.6358 151.293 26.7801 151.293 26.184H150.493C150.493 26.7399 150.4 27.5162 150.35 28.1693L151.147 28.2307ZM137.501 18.856C140.664 18.856 142.945 20.8251 143.442 23.8959L144.231 23.7681C143.672 20.3109 141.057 18.056 137.501 18.056V18.856ZM143.837 23.432H131.117V24.232H143.837V23.432ZM131.512 23.895C131.762 22.3234 132.463 21.0696 133.486 20.2079C134.51 19.346 135.879 18.856 137.501 18.856V18.056C135.714 18.056 134.156 18.598 132.971 19.5961C131.786 20.5944 130.999 22.0286 130.722 23.769L131.512 23.895ZM176.96 15.912H176.56V16.9466L177.256 16.1811L176.96 15.912ZM176.96 3.384H177.36V2.984H176.96V3.384ZM169.472 3.384V2.984H169.072V3.384H169.472ZM169.472 39H169.072V39.4H169.472V39ZM176.624 39V39.4H177.024V39H176.624ZM176.624 36.024L176.931 35.7686L176.224 34.9156V36.024H176.624ZM184.736 12.392C181.431 12.392 178.674 13.4314 176.664 15.6429L177.256 16.1811C179.085 14.1686 181.608 13.192 184.736 13.192V12.392ZM177.36 15.912V3.384H176.56V15.912H177.36ZM176.96 2.984H169.472V3.784H176.96V2.984ZM169.072 3.384V39H169.872V3.384H169.072ZM169.472 39.4H176.624V38.6H169.472V39.4ZM177.024 39V36.024H176.224V39H177.024ZM176.316 36.2794C178.282 38.6486 181.192 39.784 184.736 39.784V38.984C181.367 38.984 178.71 37.9114 176.931 35.7686L176.316 36.2794ZM184.736 39.784C188.457 39.784 191.777 38.452 194.168 36.0608C196.561 33.6686 198 30.2395 198 26.088H197.2C197.2 30.0485 195.831 33.2674 193.603 35.4952C191.374 37.724 188.263 38.984 184.736 38.984V39.784ZM198 26.088C198 21.9365 196.561 18.5074 194.168 16.1152C191.777 13.724 188.457 12.392 184.736 12.392V13.192C188.263 13.192 191.374 14.452 193.603 16.6808C195.831 18.9086 197.2 22.1275 197.2 26.088H198ZM183.44 32.84C181.666 32.84 180.13 32.2052 179.037 31.0616C177.943 29.9175 177.264 28.234 177.264 26.088H176.464C176.464 28.406 177.2 30.2985 178.459 31.6144C179.717 32.9308 181.469 33.64 183.44 33.64V32.84ZM177.264 26.088C177.264 23.942 177.943 22.2585 179.037 21.1144C180.13 19.9708 181.666 19.336 183.44 19.336V18.536C181.469 18.536 179.717 19.2452 178.459 20.5616C177.2 21.8775 176.464 23.77 176.464 26.088H177.264ZM183.44 19.336C185.213 19.336 186.749 19.9708 187.843 21.1144C188.936 22.2585 189.616 23.942 189.616 26.088H190.416C190.416 23.77 189.679 21.8775 188.421 20.5616C187.162 19.2452 185.41 18.536 183.44 18.536V19.336ZM189.616 26.088C189.616 28.234 188.936 29.9175 187.843 31.0616C186.749 32.2052 185.213 32.84 183.44 32.84V33.64C185.41 33.64 187.162 32.9308 188.421 31.6144C189.679 30.2985 190.416 28.406 190.416 26.088H189.616ZM202.612 39H202.212V39.4H202.612V39ZM210.1 39V39.4H210.5V39H210.1ZM210.1 13.176H210.5V12.776H210.1V13.176ZM202.612 13.176V12.776H202.212V13.176H202.612ZM206.356 9.976C207.837 9.976 209.103 9.48984 210.002 8.64328C210.903 7.79552 211.412 6.60805 211.412 5.256H210.612C210.612 6.39995 210.185 7.37248 209.454 8.06072C208.722 8.75016 207.66 9.176 206.356 9.176V9.976ZM211.412 5.256C211.412 2.6855 209.313 0.823997 206.356 0.823997V1.624C208.968 1.624 210.612 3.21849 210.612 5.256H211.412ZM206.356 0.823997C203.384 0.823997 201.3 2.79599 201.3 5.4H202.1C202.1 3.3 203.761 1.624 206.356 1.624V0.823997ZM201.3 5.4C201.3 8.004 203.384 9.976 206.356 9.976V9.176C203.761 9.176 202.1 7.49999 202.1 5.4H201.3ZM202.612 39.4H210.1V38.6H202.612V39.4ZM210.5 39V13.176H209.7V39H210.5ZM210.1 12.776H202.612V13.576H210.1V12.776ZM202.212 13.176V39H203.012V13.176H202.212ZM240.522 35.208L240.822 35.4718L241.06 35.2013L240.816 34.9368L240.522 35.208ZM236.538 30.888L236.832 30.6168L236.557 30.319L236.263 30.5974L236.538 30.888ZM222.666 28.2V27.8H222.166L222.275 28.2874L222.666 28.2ZM242.202 28.2V28.6H242.572L242.601 28.2307L242.202 28.2ZM235.29 23.832V24.232H235.76L235.685 23.7681L235.29 23.832ZM222.57 23.832L222.175 23.769L222.101 24.232H222.57V23.832ZM242.746 26.184C242.746 21.9336 241.245 18.4776 238.746 16.0851C236.251 13.6951 232.787 12.392 228.906 12.392V13.192C232.608 13.192 235.865 14.4329 238.193 16.6629C240.519 18.8904 241.946 22.1304 241.946 26.184H242.746ZM228.906 12.392C220.829 12.392 214.73 18.1233 214.73 26.088H215.53C215.53 18.5967 221.239 13.192 228.906 13.192V12.392ZM214.73 26.088C214.73 30.0334 216.224 33.4663 218.879 35.9103C221.532 38.3524 225.318 39.784 229.866 39.784V38.984C225.486 38.984 221.904 37.6076 219.421 35.3217C216.94 33.0377 215.53 29.8226 215.53 26.088H214.73ZM229.866 39.784C234.606 39.784 238.328 38.3152 240.822 35.4718L240.221 34.9442C237.915 37.5728 234.438 38.984 229.866 38.984V39.784ZM240.816 34.9368L236.832 30.6168L236.244 31.1592L240.228 35.4792L240.816 34.9368ZM236.263 30.5974C234.563 32.2051 232.695 32.984 230.058 32.984V33.784C232.893 33.784 234.96 32.9309 236.813 31.1786L236.263 30.5974ZM230.058 32.984C226.266 32.984 223.727 31.1071 223.056 28.1126L222.275 28.2874C223.045 31.7249 225.977 33.784 230.058 33.784V32.984ZM222.666 28.6H242.202V27.8H222.666V28.6ZM242.601 28.2307C242.646 27.6358 242.746 26.7801 242.746 26.184H241.946C241.946 26.7399 241.853 27.5162 241.803 28.1693L242.601 28.2307ZM228.954 18.856C232.117 18.856 234.398 20.8251 234.895 23.8959L235.685 23.7681C235.125 20.3109 232.511 18.056 228.954 18.056V18.856ZM235.29 23.432H222.57V24.232H235.29V23.432ZM222.965 23.895C223.215 22.3234 223.917 21.0696 224.939 20.2079C225.963 19.346 227.332 18.856 228.954 18.856V18.056C227.167 18.056 225.609 18.598 224.424 19.5961C223.239 20.5944 222.452 22.0286 222.175 23.769L222.965 23.895ZM254.483 16.2H254.083V17.2313L254.778 16.4697L254.483 16.2ZM254.483 13.176H254.883V12.776H254.483V13.176ZM247.331 13.176V12.776H246.931V13.176H247.331ZM247.331 39H246.931V39.4H247.331V39ZM254.819 39V39.4H255.219V39H254.819ZM266.243 39H265.843V39.4H266.243V39ZM273.731 39V39.4H274.131V39H273.731ZM263.027 12.392C259.433 12.392 256.293 13.6243 254.188 15.9303L254.778 16.4697C256.705 14.3597 259.613 13.192 263.027 13.192V12.392ZM254.883 16.2V13.176H254.083V16.2H254.883ZM254.483 12.776H247.331V13.576H254.483V12.776ZM246.931 13.176V39H247.731V13.176H246.931ZM247.331 39.4H254.819V38.6H247.331V39.4ZM255.219 39V26.232H254.419V39H255.219ZM255.219 26.232C255.219 23.927 255.847 22.2979 256.854 21.2467C257.86 20.1971 259.293 19.672 261.011 19.672V18.872C259.129 18.872 257.466 19.4509 256.276 20.6933C255.087 21.9341 254.419 23.785 254.419 26.232H255.219ZM261.011 19.672C262.589 19.672 263.774 20.1271 264.571 21.0203C265.375 21.9216 265.843 23.334 265.843 25.368H266.643C266.643 23.226 266.151 21.5904 265.167 20.4877C264.176 19.3769 262.745 18.872 261.011 18.872V19.672ZM265.843 25.368V39H266.643V25.368H265.843ZM266.243 39.4H273.731V38.6H266.243V39.4ZM274.131 39V24.216H273.331V39H274.131ZM274.131 24.216C274.131 20.2012 272.954 17.2313 270.945 15.266C268.938 13.303 266.151 12.392 263.027 12.392V13.192C265.999 13.192 268.564 14.057 270.385 15.838C272.204 17.6167 273.331 20.3588 273.331 24.216H274.131ZM295.159 32.472L295.532 32.3293L295.341 31.8288L294.916 32.1543L295.159 32.472ZM288.919 19.512V19.112H288.519V19.512H288.919ZM295.351 19.512V19.912H295.751V19.512H295.351ZM295.351 13.752H295.751V13.352H295.351V13.752ZM288.919 13.752H288.519V14.152H288.919V13.752ZM288.919 7.464H289.319V7.064H288.919V7.464ZM281.431 7.464V7.064H281.031V7.464H281.431ZM281.431 13.752V14.152H281.831V13.752H281.431ZM277.447 13.752V13.352H277.047V13.752H277.447ZM277.447 19.512H277.047V19.912H277.447V19.512ZM281.431 19.512H281.831V19.112H281.431V19.512ZM297.175 37.752L297.408 38.0768L297.658 37.8971L297.548 37.6093L297.175 37.752ZM294.916 32.1543C294.179 32.7176 293.164 33.032 292.135 33.032V33.832C293.313 33.832 294.506 33.4744 295.401 32.7897L294.916 32.1543ZM292.135 33.032C291.206 33.032 290.518 32.7576 290.059 32.2792C289.599 31.7986 289.319 31.0579 289.319 30.024H288.519C288.519 31.1981 288.838 32.1614 289.482 32.8328C290.127 33.5064 291.047 33.832 292.135 33.832V33.032ZM289.319 30.024V19.512H288.519V30.024H289.319ZM288.919 19.912H295.351V19.112H288.919V19.912ZM295.751 19.512V13.752H294.951V19.512H295.751ZM295.351 13.352H288.919V14.152H295.351V13.352ZM289.319 13.752V7.464H288.519V13.752H289.319ZM288.919 7.064H281.431V7.864H288.919V7.064ZM281.031 7.464V13.752H281.831V7.464H281.031ZM281.431 13.352H277.447V14.152H281.431V13.352ZM277.047 13.752V19.512H277.847V13.752H277.047ZM277.447 19.912H281.431V19.112H277.447V19.912ZM281.031 19.512V30.12H281.831V19.512H281.031ZM281.031 30.12C281.031 33.2692 281.943 35.704 283.695 37.3477C285.443 38.9874 287.967 39.784 291.079 39.784V38.984C288.094 38.984 285.794 38.2206 284.242 36.7643C282.694 35.312 281.831 33.1148 281.831 30.12H281.031ZM291.079 39.784C293.431 39.784 295.78 39.2471 297.408 38.0768L296.941 37.4272C295.497 38.4649 293.334 38.984 291.079 38.984V39.784ZM297.548 37.6093L295.532 32.3293L294.785 32.6147L296.801 37.8947L297.548 37.6093ZM312.773 6.216L313.036 5.91475L312.773 5.68487L312.51 5.91475L312.773 6.216ZM316.949 9.864L316.686 10.1652L316.799 10.264H316.949V9.864ZM322.421 9.864V10.264H323.33L322.716 9.59371L322.421 9.864ZM316.085 2.952L316.38 2.68171L316.261 2.552H316.085V2.952ZM309.461 2.952V2.552H309.285L309.166 2.68171L309.461 2.952ZM303.125 9.864L302.83 9.59371L302.216 10.264H303.125V9.864ZM308.597 9.864V10.264H308.747L308.86 10.1652L308.597 9.864ZM312.51 6.51724L316.686 10.1652L317.212 9.56275L313.036 5.91475L312.51 6.51724ZM316.949 10.264H322.421V9.464H316.949V10.264ZM322.716 9.59371L316.38 2.68171L315.79 3.22229L322.126 10.1343L322.716 9.59371ZM316.085 2.552H309.461V3.352H316.085V2.552ZM309.166 2.68171L302.83 9.59371L303.42 10.1343L309.756 3.22229L309.166 2.68171ZM303.125 10.264H308.597V9.464H303.125V10.264ZM308.86 10.1652L313.036 6.51724L312.51 5.91475L308.334 9.56275L308.86 10.1652ZM312.869 12.392C304.467 12.392 298.261 18.0647 298.261 26.088H299.061C299.061 18.5593 304.855 13.192 312.869 13.192V12.392ZM298.261 26.088C298.261 34.1113 304.467 39.784 312.869 39.784V38.984C304.855 38.984 299.061 33.6167 299.061 26.088H298.261ZM312.869 39.784C321.272 39.784 327.429 34.1096 327.429 26.088H326.629C326.629 33.6184 320.882 38.984 312.869 38.984V39.784ZM327.429 26.088C327.429 18.0664 321.272 12.392 312.869 12.392V13.192C320.882 13.192 326.629 18.5576 326.629 26.088H327.429ZM312.869 32.84C311.095 32.84 309.546 32.2049 308.441 31.0601C307.335 29.9153 306.645 28.2321 306.645 26.088H305.845C305.845 28.4078 306.595 30.3007 307.865 31.6159C309.136 32.9311 310.899 33.64 312.869 33.64V32.84ZM306.645 26.088C306.645 23.9438 307.335 22.2607 308.441 21.1159C309.546 19.9711 311.095 19.336 312.869 19.336V18.536C310.899 18.536 309.136 19.2449 307.865 20.5601C306.595 21.8753 305.845 23.7681 305.845 26.088H306.645ZM312.869 19.336C314.642 19.336 316.178 19.9708 317.272 21.1144C318.366 22.2585 319.045 23.942 319.045 26.088H319.845C319.845 23.77 319.108 21.8775 317.85 20.5616C316.592 19.2452 314.84 18.536 312.869 18.536V19.336ZM319.045 26.088C319.045 28.234 318.366 29.9175 317.272 31.0616C316.178 32.2052 314.642 32.84 312.869 32.84V33.64C314.84 33.64 316.592 32.9308 317.85 31.6144C319.108 30.2985 319.845 28.406 319.845 26.088H319.045ZM346.674 32.472L347.048 32.3293L346.857 31.8288L346.431 32.1543L346.674 32.472ZM340.434 19.512V19.112H340.034V19.512H340.434ZM346.866 19.512V19.912H347.266V19.512H346.866ZM346.866 13.752H347.266V13.352H346.866V13.752ZM340.434 13.752H340.034V14.152H340.434V13.752ZM340.434 7.464H340.834V7.064H340.434V7.464ZM332.946 7.464V7.064H332.546V7.464H332.946ZM332.946 13.752V14.152H333.346V13.752H332.946ZM328.962 13.752V13.352H328.562V13.752H328.962ZM328.962 19.512H328.562V19.912H328.962V19.512ZM332.946 19.512H333.346V19.112H332.946V19.512ZM348.69 37.752L348.924 38.0768L349.174 37.8971L349.064 37.6093L348.69 37.752ZM346.431 32.1543C345.695 32.7176 344.679 33.032 343.65 33.032V33.832C344.829 33.832 346.022 33.4744 346.917 32.7897L346.431 32.1543ZM343.65 33.032C342.722 33.032 342.033 32.7576 341.575 32.2792C341.114 31.7986 340.834 31.0579 340.834 30.024H340.034C340.034 31.1981 340.354 32.1614 340.997 32.8328C341.643 33.5064 342.562 33.832 343.65 33.832V33.032ZM340.834 30.024V19.512H340.034V30.024H340.834ZM340.434 19.912H346.866V19.112H340.434V19.912ZM347.266 19.512V13.752H346.466V19.512H347.266ZM346.866 13.352H340.434V14.152H346.866V13.352ZM340.834 13.752V7.464H340.034V13.752H340.834ZM340.434 7.064H332.946V7.864H340.434V7.064ZM332.546 7.464V13.752H333.346V7.464H332.546ZM332.946 13.352H328.962V14.152H332.946V13.352ZM328.562 13.752V19.512H329.362V13.752H328.562ZM328.962 19.912H332.946V19.112H328.962V19.912ZM332.546 19.512V30.12H333.346V19.512H332.546ZM332.546 30.12C332.546 33.2692 333.458 35.704 335.21 37.3477C336.958 38.9874 339.482 39.784 342.594 39.784V38.984C339.61 38.984 337.31 38.2206 335.758 36.7643C334.21 35.312 333.346 33.1148 333.346 30.12H332.546ZM342.594 39.784C344.946 39.784 347.295 39.2471 348.924 38.0768L348.457 37.4272C347.013 38.4649 344.85 38.984 342.594 38.984V39.784ZM349.064 37.6093L347.048 32.3293L346.3 32.6147L348.316 37.8947L349.064 37.6093Z" fill="white"/>
</svg>
