<svg width="244" height="38" viewBox="0 0 244 38" fill="none" xmlns="http://www.w3.org/2000/svg">
<g clip-path="url(#clip0)">
<path d="M5.60995 34.7576C3.22712 34.7576 1.69531 34.4874 1.0145 33.9469C0.33369 33.4065 -0.00671387 32.1384 -0.00671387 30.1425V0.914504H7.6813V28.2301H20.106V34.7576H5.60995ZM20.7358 0.0834351H28.4715V12.4316H31.6713V19.0834H28.4715V37.9591H20.7426L20.7358 0.0834351Z" fill="black"/>
<path d="M68.6052 16.2565V22.5286H37.9807V16.2497L68.6052 16.2565ZM46.7887 14.3441C44.1846 14.3441 42.4672 14.1363 41.6367 13.7208C40.418 13.1111 39.8087 11.7806 39.8087 9.72907V0.0834351H47.5784V7.98352H67.5652V14.3441H46.7887ZM47.495 38.0017C44.8909 38.0017 43.16 37.7939 42.3021 37.3784C41.0812 36.796 40.4713 35.4654 40.4725 33.3867V24.4887H48.2848V31.6411H67.5652V38.0034L47.495 38.0017Z" fill="black"/>
<path d="M127.652 19.998V26.1048H117.637V37.9541H109.488V26.1048H97.8951V19.9929L127.652 19.998ZM105.462 17.8778C103.052 17.8778 101.446 17.5037 100.642 16.7556C99.8389 16.0074 99.44 14.469 99.4457 12.1405V0.914551H107.615V11.725H126.607V17.8778H105.462Z" fill="black"/>
<path d="M166.296 17.5457V24.1566H155.16V37.9592H146.975V24.1566H135.838V17.5457H166.296ZM137.043 0.873657H164.676V3.36849C164.676 8.49555 164.357 12.875 163.719 16.5069H155.908C156.15 15.1668 156.302 13.8123 156.365 12.4521C156.449 10.9149 156.49 9.4112 156.489 7.94097V7.48455H137.043V0.873657Z" fill="black"/>
<path d="M182.627 0C185.867 0 188.513 1.28914 190.563 3.86743C192.448 6.22207 193.39 9.049 193.389 12.3482C193.389 15.5929 192.46 18.3648 190.604 20.6638C188.582 23.1615 185.964 24.4103 182.751 24.4103C179.51 24.4103 176.865 23.1496 174.814 20.6281C172.906 18.295 171.952 15.4936 171.952 12.2239C171.952 8.9542 172.935 6.12727 174.903 3.74312C176.978 1.24884 179.553 0.00113531 182.627 0ZM176.394 24.9876H184.547V31.5986H203.744V38.0017H180.972C179.088 38.0017 177.813 37.5306 177.15 36.5883C176.65 35.8946 176.401 34.7161 176.402 33.0529L176.394 24.9876ZM179.178 12.0161V12.1864C179.178 13.7645 179.462 15.1365 180.029 16.3025C180.597 17.4685 181.463 18.0503 182.627 18.048C183.679 18.048 184.51 17.452 185.12 16.2599C185.747 14.9949 186.06 13.5979 186.034 12.1864C186.034 10.5788 185.799 9.24826 185.328 8.1947C184.746 6.86525 183.887 6.19996 182.751 6.19882C181.615 6.19769 180.736 6.77954 180.113 7.94436C179.49 9.10692 179.178 10.4642 179.178 12.0161ZM194.968 0H203.153V27.5234H194.968V0Z" fill="black"/>
<path d="M214.332 36.4622L211.464 30.8424C214.982 29.6504 217.793 27.294 219.899 23.7734C221.479 21.1406 222.269 18.8263 222.269 16.8304L222.31 7.3926H211.798V0.740799H230.331V12.963C230.326 15.9332 229.835 18.8825 228.878 21.6941C227.743 25.049 226.067 27.944 223.85 30.3792C221.276 33.2198 217.99 35.32 214.332 36.4622ZM233.238 0.0834351H241.425V11.4337H244V18.0855H241.425V37.9591H233.238V0.0834351Z" fill="black"/>
</g>
<defs>
<clipPath id="clip0">
<rect width="244" height="38" fill="white"/>
</clipPath>
</defs>
</svg>
